# xmcd CD database file
#
# Track frame offsets:
#	150
#	22167
#	43872
#	62405
#	79612
#	99527
#	122137
#	143255
#	164357
#	186937
#	209972
#	235127
#
# Disc length: 3273 seconds
#
# Revision: 0
# Processed by: cddbd v1.4PL0 Copyright (c) Steve Scherf et al.
# Submitted via: CDex 1.50beta9
#
DISCID=a60cc70c
DTITLE=Satoru Wono - El Nino
DYEAR=2003
DGENRE=New Age
TTITLE0=Silence to Good-bye
TTITLE1=A Movable Feast
TTITLE2=Endless Summer
TTITLE3=Sunday in Panama
TTITLE4=Taratula
TTITLE5=Ramumbo
TTITLE6=Southern Cross
TTITLE7=Snowball
TTITLE8=El Dorado
TTITLE9=Afternoon Weather
TTITLE10=The Season of The Sun
TTITLE11=Bird of Paradise
EXTD=YEAR: 2003
EXTT0=
EXTT1=
EXTT2=
EXTT3=
EXTT4=
EXTT5=
EXTT6=
EXTT7=
EXTT8=
EXTT9=
EXTT10=
EXTT11=
PLAYORDER=
